<?xml version="1.0" encoding="utf-8"?>
<!-- Generator: Adobe Illustrator 20.0.0, SVG Export Plug-In . SVG Version: 6.00 Build 0)  -->
<svg version="1.1" id="Layer_1" xmlns="http://www.w3.org/2000/svg" xmlns:xlink="http://www.w3.org/1999/xlink" x="0px" y="0px" viewBox="0 0 800 96.4" style="enable-background:new 0 0 800 96.4;" xml:space="preserve">
	<style>
		.text {
			fill: #222;
		}
		.line {
			fill: #0a3;
		}
	</style>
	<g class="text">
		<path
			d="M0,0h13.8c3.7,0,6.6,0.3,8.6,0.9c2,0.6,3.5,1.4,4.5,2.5c1,1.1,1.7,2.4,2.1,4c0.4,1.6,0.5,4,0.5,7.3v4.6
		c0,3.4-0.3,5.8-1,7.4c-0.7,1.5-2,2.7-3.8,3.5c-1.9,0.8-4.3,1.2-7.3,1.2h-3.7v21.2H0V0z M13.7,9v13.4c0.4,0,0.7,0,1,0
		c1.3,0,2.1-0.3,2.6-0.9c0.5-0.6,0.7-1.9,0.7-3.9v-4.3c0-1.8-0.3-3-0.8-3.5C16.7,9.3,15.5,9,13.7,9z"/>
		<path d="M113.9,0v52.7h-13.7V0H113.9z"/>
		<path d="M216.7,0v52.7h-12l-7.1-24v24h-11.5V0h11.5l7.7,23.7V0H216.7z"/>
		<path d="M288.9,0h22.9v10.6h-9.2v10h8.6v10h-8.6v11.6h10.1v10.6h-23.8V0z"/>
		<path d="M407,0l7.8,52.7h-14l-0.7-9.5h-4.9l-0.8,9.5h-14.2l7-52.7H407z M399.7,33.9c-0.7-6-1.4-13.4-2.1-22.1
		c-1.4,10.1-2.3,17.5-2.6,22.1H399.7z"/>
		<path
			d="M483.8,0h13.8c3.7,0,6.6,0.3,8.6,0.9s3.5,1.4,4.5,2.5s1.7,2.4,2.1,4c0.4,1.6,0.5,4,0.5,7.3v4.6c0,3.4-0.3,5.8-1,7.4
		c-0.7,1.5-2,2.7-3.8,3.5c-1.9,0.8-4.3,1.2-7.3,1.2h-3.7v21.2h-13.7V0z M497.5,9v13.4c0.4,0,0.7,0,1,0c1.3,0,2.1-0.3,2.6-0.9
		c0.5-0.6,0.7-1.9,0.7-3.9v-4.3c0-1.8-0.3-3-0.8-3.5C500.5,9.3,499.3,9,497.5,9z"/>
		<path
			d="M584,0h13.8c3.7,0,6.6,0.3,8.6,0.9s3.5,1.4,4.5,2.5c1,1.1,1.7,2.4,2.1,4c0.4,1.6,0.5,4,0.5,7.3v4.6c0,3.4-0.3,5.8-1,7.4
		c-0.7,1.5-2,2.7-3.8,3.5c-1.9,0.8-4.3,1.2-7.3,1.2h-3.7v21.2H584V0z M597.7,9v13.4c0.4,0,0.7,0,1,0c1.3,0,2.1-0.3,2.6-0.9
		c0.5-0.6,0.7-1.9,0.7-3.9v-4.3c0-1.8-0.3-3-0.8-3.5C600.7,9.3,599.5,9,597.7,9z"/>
		<path d="M697.9,0v42.2h8.3v10.6h-22V0H697.9z"/>
		<path d="M776.2,0h22.9v10.6h-9.2v10h8.6v10h-8.6v11.6H800v10.6h-23.8V0z"/>
	</g>
	<rect class="line" x="393.1" y="-310.4" transform="matrix(6.123234e-17 -1 1 6.123234e-17 310.4237 489.5763)" width="13.7" height="800"/>
</svg>
